{
  "title": "Avengers Age of Ultron 2015 CAM x264 AC3 TiTAN",
  "uid": 11851145,
  "size": 1718954302,
  "categoryP": "video",
  "categoryS": "movies",
  "magnet": "?xt=urn:btih:dda7b0dda08adc65b0f4ef4ecff2a76abe1cb78a&amp;dn=Avengers+Age+of+Ultron+2015+CAM+x264+AC3+TiTAN&amp;tr=udp%3A%2F%2Ftracker.openbittorrent.com%3A80&amp;tr=udp%3A%2F%2Fopen.demonii.com%3A1337&amp;tr=udp%3A%2F%2Ftracker.coppersurfer.tk%3A6969&amp;tr=udp%3A%2F%2Fexodus.desync.com%3A6969",
  "seeders": 44,
  "leechers": 3,
  "uploader": ".BONE.",
  "files": 3,
  "time": 1430095155,
  "description": " &lt;a href=&quot;http://www.imdb.com/title/tt2395427/&quot; rel=&quot;nofollow&quot; target=&quot;_NEW&quot;&gt;http://www.imdb.com/title/tt2395427/&lt;/a&gt;\n\nSource: VOBS/Murder THX\n\nPretty nice first vid here.. no camera movement or heads in the way.. lmao\naudio is ok, a little hollow but i had no problem understanding it thru my stereo .. Enjoy\n\nGeneral\n\nFormat : Matroska\nFormat version : Version 2\nFile size : 1.60 GiB\nDuration : 2h 12mn\nOverall bit rate : 1 729 Kbps\nEncoded date : UTC 2015-04-25 02:38:23\n\nVideo\nID : 1\nFormat : AVC\nFormat/Info : Advanced Video Codec\nFormat profile : &lt;a class=&quot;__cf_email__&quot; href=&quot;/cdn-cgi/l/email-protection&quot; data-cfemail=&quot;3479555d5a7478001a05&quot;&gt;[email&amp;#160;protected]&lt;/a&gt;&lt;script cf-hash='f9e31' type=&quot;text/javascript&quot;&gt;\n/* &lt;![CDATA[ */!function(){try{var t=&quot;currentScript&quot;in document?document.currentScript:function(){for(var t=document.getElementsByTagName(&quot;script&quot;),e=t.length;e--;)if(t[e].getAttribute(&quot;cf-hash&quot;))return t[e]}();if(t&amp;&amp;t.previousSibling){var e,r,n,i,c=t.previousSibling,a=c.getAttribute(&quot;data-cfemail&quot;);if(a){for(e=&quot;&quot;,r=parseInt(a.substr(0,2),16),n=2;a.length-n;n+=2)i=parseInt(a.substr(n,2),16)^r,e+=String.fromCharCode(i);e=document.createTextNode(e),c.parentNode.replaceChild(e,c)}}}catch(u){}}();/* ]]&gt; */&lt;/script&gt;\nFormat settings, CABAC : Yes\nFormat settings, ReFrames : 5 frames\nCodec ID : V_MPEG4/ISO/AVC\nDuration : 2h 12mn\nBit rate : 1 600 Kbps\nWidth : 720 pixels\nHeight : 304 pixels\nDisplay aspect ratio : 2.35:1\nFrame rate mode : Constant\nFrame rate : 29.970 fps\nColor space : YUV\nChroma subsampling : 4:2:0\nBit depth : 8 bits\nScan type : Progressive\nBits/(Pixel*Frame) : 0.244\nStream size : 1.45 GiB (91%)\nLanguage : English\nDefault : Yes\nForced : No\nColor primaries : BT.601 NTSC\nTransfer characteristics : BT.709\nMatrix coefficients : BT.601\n\nAudio\nID : 2\nFormat : AC-3\nFormat/Info : Audio Coding 3\nMode extension : CM (complete main)\nFormat settings, Endianness : Big\nCodec ID : A_AC3\nDuration : 2h 12mn\nBit rate mode : Constant\nBit rate : 128 Kbps\nChannel(s) : 2 channels\nChannel positions : Front: L R\nSampling rate : 44.1 KHz\nBit depth : 16 bits\nCompression mode : Lossy\nDelay relative to video : 20ms\nStream size : 121 MiB (7%)\nDefault : Yes\nForced : No\n\n &lt;a href=&quot;\nhttp://i.imgur.com/PyyVSZQ.png&quot; rel=&quot;nofollow&quot; target=&quot;_NEW&quot;&gt;\nhttp://i.imgur.com/PyyVSZQ.png&lt;/a&gt; &lt;a href=&quot;\nhttp://i.imgur.com/DMEe7kA.png&quot; rel=&quot;nofollow&quot; target=&quot;_NEW&quot;&gt;\nhttp://i.imgur.com/DMEe7kA.png&lt;/a&gt; &lt;a href=&quot;\nhttp://i.imgur.com/EvTx4ZB.png&quot; rel=&quot;nofollow&quot; target=&quot;_NEW&quot;&gt;\nhttp://i.imgur.com/EvTx4ZB.png&lt;/a&gt; &lt;a href=&quot;\nhttp://i.imgur.com/Ivi7lhg.png&quot; rel=&quot;nofollow&quot; target=&quot;_NEW&quot;&gt;\nhttp://i.imgur.com/Ivi7lhg.png&lt;/a&gt;",
  "parsed": {
    "xt": "urn:btih:dda7b0dda08adc65b0f4ef4ecff2a76abe1cb78a",
    "dn": "Avengers Age of Ultron 2015 CAM x264 AC3 TiTAN",
    "tr": [
      "udp://exodus.desync.com:6969",
      "udp://open.demonii.com:1337",
      "udp://tracker.coppersurfer.tk:6969",
      "udp://tracker.openbittorrent.com:80"
    ],
    "infoHash": "dda7b0dda08adc65b0f4ef4ecff2a76abe1cb78a",
    "infoHashBuffer": {
      "type": "Buffer",
      "data": [
        221,
        167,
        176,
        221,
        160,
        138,
        220,
        101,
        176,
        244,
        239,
        78,
        207,
        242,
        167,
        106,
        190,
        28,
        183,
        138
      ]
    },
    "name": "Avengers Age of Ultron 2015 CAM x264 AC3 TiTAN",
    "announce": [
      "udp://exodus.desync.com:6969",
      "udp://open.demonii.com:1337",
      "udp://tracker.coppersurfer.tk:6969",
      "udp://tracker.openbittorrent.com:80"
    ],
    "urlList": []
  },
  "previous": 18,
  "peers": 19,
  "last_updated": "2016-12-27T15:02:31.851Z"
}